<?xml version="1.0" encoding="UTF-8" standalone="no"?>
<!-- Created with Inkscape (http://www.inkscape.org/) -->

<svg
   width="1820"
   height="1040"
   viewBox="0 0 481.54198 275.1668"
   version="1.1"
   id="svg5"
   inkscape:version="1.2.2 (732a01da63, 2022-12-09)"
   xml:space="preserve"
   sodipodi:docname="wiigameback.svg"
   xmlns:inkscape="http://www.inkscape.org/namespaces/inkscape"
   xmlns:sodipodi="http://sodipodi.sourceforge.net/DTD/sodipodi-0.dtd"
   xmlns="http://www.w3.org/2000/svg"
   xmlns:svg="http://www.w3.org/2000/svg"><sodipodi:namedview
     id="namedview7"
     pagecolor="#000000"
     bordercolor="#111111"
     borderopacity="1"
     inkscape:showpageshadow="0"
     inkscape:pageopacity="0"
     inkscape:pagecheckerboard="1"
     inkscape:deskcolor="#d1d1d1"
     inkscape:document-units="mm"
     showgrid="false"
     inkscape:zoom="0.63697918"
     inkscape:cx="918.39736"
     inkscape:cy="673.4914"
     inkscape:window-width="1920"
     inkscape:window-height="1009"
     inkscape:window-x="-8"
     inkscape:window-y="-8"
     inkscape:window-maximized="1"
     inkscape:current-layer="layer1" /><defs
     id="defs2"><inkscape:path-effect
       effect="bspline"
       id="path-effect3318"
       is_visible="true"
       lpeversion="1"
       weight="33.333333"
       steps="2"
       helper_size="0"
       apply_no_weight="true"
       apply_with_weight="true"
       only_selected="false" /><inkscape:path-effect
       effect="mirror_symmetry"
       start_point="252.4331,206.80351"
       end_point="252.4331,286.13003"
       center_point="252.4331,246.46677"
       id="path-effect2331"
       is_visible="true"
       lpeversion="1.2"
       lpesatellites=""
       mode="X"
       discard_orig_path="false"
       fuse_paths="false"
       oposite_fuse="true"
       split_items="false"
       split_open="false"
       link_styles="false" /></defs><g
     inkscape:label="Layer 1"
     inkscape:groupmode="layer"
     id="layer1"><path
       id="rect17587"
       style="fill:none;stroke:#ffffff;stroke-width:12;stroke-linecap:round;stroke-linejoin:round;paint-order:fill markers stroke;stroke-opacity:1;fill-opacity:1;stroke-dasharray:none"
       d="m 29.228173,23.656698 c 7.765585,-7.017588 19.678789,-8.435958 30.138764,-8.809797 65.228233,-2.33125 123.008523,-4.73275 184.541883,-4.636736 54.73524,0.08542 112.56367,1.545975 164.14046,4.636736 16.70226,1.000892 34.39641,3.089935 46.36732,13.910207 7.19713,6.505392 8.94934,17.439396 11.12815,26.893071 6.29442,27.31062 4.88272,55.899081 5.1004,83.924831 0.21254,27.38384 -1.80218,53.37061 -3.70933,82.07022 -0.62038,9.33624 -4.37744,19.03587 -10.66454,25.96573 -5.99284,6.60554 -16.25043,10.66731 -23.64729,12.51918 -20.04812,5.01921 -123.63143,3.86494 -185.46945,4.17307 -61.67267,0.30729 -119.31012,-0.90032 -185.005561,-2.31837 -10.020114,-0.21629 -21.070488,-2.36703 -28.747739,-8.8098 -6.512648,-5.46543 -9.195519,-14.56261 -11.591844,-22.72001 -9.193719,-31.2966 -8.989769,-64.76099 -9.737144,-97.37146 C 11.48,107.24174 12.793774,88.501436 16.245314,55.650179 17.447905,44.204064 20.689155,31.373229 29.228173,23.656698 Z"
       sodipodi:nodetypes="asasaaasasasaaasa" /><path
       style="fill:#ffffff;fill-opacity:1;stroke-width:10.23;stroke-linecap:round;stroke-linejoin:round;stroke-dasharray:none;paint-order:fill markers stroke"
       d="m 427.41781,213.93801 c 0,0 42.5614,-41.88001 42.5614,-41.88001"
       id="path3316"
       inkscape:path-effect="#path-effect3318"
       inkscape:original-d="M 427.41781,213.93801 469.97921,172.058"
       sodipodi:nodetypes="cc" /></g></svg>
