<?xml version="1.0" encoding="UTF-8" standalone="no"?>
<!-- Created with Inkscape (http://www.inkscape.org/) -->

<svg
   width="1820"
   height="1040"
   viewBox="0 0 481.54198 275.1668"
   version="1.1"
   id="svg5"
   inkscape:version="1.2.2 (732a01da63, 2022-12-09)"
   xml:space="preserve"
   sodipodi:docname="wiigrid.svg"
   xmlns:inkscape="http://www.inkscape.org/namespaces/inkscape"
   xmlns:sodipodi="http://sodipodi.sourceforge.net/DTD/sodipodi-0.dtd"
   xmlns="http://www.w3.org/2000/svg"
   xmlns:svg="http://www.w3.org/2000/svg"><sodipodi:namedview
     id="namedview7"
     pagecolor="#000000"
     bordercolor="#111111"
     borderopacity="1"
     inkscape:showpageshadow="0"
     inkscape:pageopacity="0"
     inkscape:pagecheckerboard="1"
     inkscape:deskcolor="#d1d1d1"
     inkscape:document-units="mm"
     showgrid="false"
     inkscape:zoom="1.8016492"
     inkscape:cx="1637.6662"
     inkscape:cy="47.178996"
     inkscape:window-width="1920"
     inkscape:window-height="1009"
     inkscape:window-x="-8"
     inkscape:window-y="-8"
     inkscape:window-maximized="1"
     inkscape:current-layer="layer1" /><defs
     id="defs2"><inkscape:path-effect
       effect="mirror_symmetry"
       start_point="252.4331,206.80351"
       end_point="252.4331,286.13003"
       center_point="252.4331,246.46677"
       id="path-effect2331"
       is_visible="true"
       lpeversion="1.2"
       lpesatellites=""
       mode="X"
       discard_orig_path="false"
       fuse_paths="false"
       oposite_fuse="true"
       split_items="false"
       split_open="false"
       link_styles="false" /></defs><g
     inkscape:label="Layer 1"
     inkscape:groupmode="layer"
     id="layer1"><path
       id="rect17587-5"
       style="fill:none;fill-opacity:1;stroke:#c6c4c6;stroke-width:10.13;stroke-linecap:round;stroke-linejoin:round;stroke-dasharray:none;stroke-opacity:1;paint-order:fill markers stroke"
       d="M 31.570385,25.422024 C 39.33597,18.404476 51.249174,16.986112 61.709149,16.612275 126.93725,14.28104 184.71754,11.879552 246.2509,11.975572 c 54.73524,0.0854 112.56367,1.545961 164.14046,4.636703 16.70226,1.000884 34.39641,3.089922 46.36732,13.910136 7.19713,6.505392 8.94934,17.439396 11.12815,26.893071 6.29442,27.31062 4.88272,55.899158 5.1004,83.925078 0.21254,27.38399 -1.80218,53.37091 -3.70933,82.07068 -0.62038,9.33628 -4.37744,19.03591 -10.66454,25.96577 -5.99284,6.60554 -16.25043,10.66731 -23.64729,12.51918 -20.04812,5.01921 -123.63143,3.86494 -185.46945,4.17307 -61.67267,0.30729 -119.31012,-0.90032 -185.005429,-2.31837 -10.020114,-0.21629 -21.070488,-2.36703 -28.747739,-8.8098 -6.512648,-5.46543 -9.195519,-14.56261 -11.591844,-22.72001 -9.193719,-31.29677 -8.989769,-64.76134 -9.737144,-97.372 -0.592252,-25.84199 0.721522,-44.582341 4.173062,-77.433598 1.202591,-11.446115 4.443841,-24.27695 12.982859,-31.993458 z"
       sodipodi:nodetypes="asasaaasasasaaasa" /><path
       id="rect17587"
       style="fill:none;stroke:#ffffff;stroke-width:10.13;stroke-linecap:round;stroke-linejoin:round;paint-order:fill markers stroke;stroke-opacity:1;fill-opacity:1;stroke-dasharray:none"
       d="m 29.228173,23.656698 c 7.765585,-7.017588 19.678789,-8.435958 30.138764,-8.809797 65.228233,-2.33125 123.008523,-4.73275 184.541883,-4.636736 54.73524,0.08542 112.56367,1.545975 164.14046,4.636736 16.70226,1.000892 34.39641,3.089935 46.36732,13.910207 7.19713,6.505392 8.94934,17.439396 11.12815,26.893071 6.29442,27.31062 4.88272,55.899081 5.1004,83.924831 0.21254,27.38384 -1.80218,53.37061 -3.70933,82.07022 -0.62038,9.33624 -4.37744,19.03587 -10.66454,25.96573 -5.99284,6.60554 -16.25043,10.66731 -23.64729,12.51918 -20.04812,5.01921 -123.63143,3.86494 -185.46945,4.17307 -61.67267,0.30729 -119.31012,-0.90032 -185.005561,-2.31837 -10.020114,-0.21629 -21.070488,-2.36703 -28.747739,-8.8098 -6.512648,-5.46543 -9.195519,-14.56261 -11.591844,-22.72001 -9.193719,-31.2966 -8.989769,-64.76099 -9.737144,-97.37146 C 11.48,107.24174 12.793774,88.501436 16.245314,55.650179 17.447905,44.204064 20.689155,31.373229 29.228173,23.656698 Z"
       sodipodi:nodetypes="asasaaasasasaaasa" /><path
       id="rect23709"
       style="display:none;fill:#000000;fill-opacity:1;stroke:#9c9c9c;stroke-width:5.02999;stroke-linecap:round;stroke-linejoin:round;paint-order:fill markers stroke"
       d="M 14.408421,186.853 H 468.4707 c 0,0 0.77215,30.40533 -3.37281,44.79369 -1.54408,5.35993 -7.81341,14.79756 -7.81341,14.79756 0,0 -9.51543,8.53436 -15.39197,10.60421 -29.7937,10.49403 -94.50377,7.00992 -94.50377,7.00992 l -54.90047,0.17259 -55.1063,0.10852 -56.97027,-0.24428 -53.99831,-0.79599 -53.933034,-1.09191 c 0,0 -25.020956,0.84751 -34.552229,-5.91185 -10.000334,-7.092 -13.884715,-20.55802 -17.843656,-32.16104 -4.059216,-11.8969 -5.67605,-37.28142 -5.67605,-37.28142 z"
       sodipodi:nodetypes="ccacaccccccaac" /></g></svg>
